<svg xmlns="http://www.w3.org/2000/svg" viewBox="0 0 512 512" role="img" aria-labelledby="title desc">
  <title id="title">Fiip logo</title>
  <desc id="desc">Abstract folded note mark with a warm glass highlight.</desc>
  <defs>
    <linearGradient id="bg" x1="84" y1="58" x2="428" y2="454" gradientUnits="userSpaceOnUse">
      <stop stop-color="#fff8e8"/>
      <stop offset=".42" stop-color="#f4c45f"/>
      <stop offset="1" stop-color="#171717"/>
    </linearGradient>
    <linearGradient id="paper" x1="160" y1="92" x2="354" y2="392" gradientUnits="userSpaceOnUse">
      <stop stop-color="#ffffff" stop-opacity=".96"/>
      <stop offset=".58" stop-color="#f8e7b8" stop-opacity=".9"/>
      <stop offset="1" stop-color="#22d3ee" stop-opacity=".58"/>
    </linearGradient>
    <filter id="shadow" x="-20%" y="-20%" width="140%" height="140%" color-interpolation-filters="sRGB">
      <feDropShadow dx="0" dy="18" stdDeviation="22" flood-color="#171717" flood-opacity=".26"/>
    </filter>
  </defs>
  <rect width="512" height="512" rx="116" fill="url(#bg)"/>
  <path d="M146 126c0-22 18-40 40-40h162l58 58v242c0 22-18 40-40 40H186c-22 0-40-18-40-40V126Z" fill="url(#paper)" filter="url(#shadow)"/>
  <path d="M348 86v50c0 18 14 32 32 32h26L348 86Z" fill="#ffffff" fill-opacity=".72"/>
  <path d="M207 170h112c11 0 20 9 20 20s-9 20-20 20h-73v46h66c11 0 20 9 20 20s-9 20-20 20h-66v74c0 12-9 21-21 21s-21-9-21-21V191c0-12 10-21 22-21Z" fill="#171717"/>
  <path d="M362 251c24 16 42 39 51 67-27-8-50-25-66-48-7-11 4-27 15-19Z" fill="#22d3ee" fill-opacity=".86"/>
  <circle cx="177" cy="120" r="34" fill="#ffffff" fill-opacity=".42"/>
</svg>
